<?xml version="1.0" encoding="utf-8"?>

<!DOCTYPE svg PUBLIC "-//W3C//DTD SVG 1.1//EN" "http://www.w3.org/Graphics/SVG/1.1/DTD/svg11.dtd">
<!-- Uploaded to: SVG Repo, www.svgrepo.com, Generator: SVG Repo Mixer Tools -->
<svg version="1.1" id="_x32_" xmlns="http://www.w3.org/2000/svg" xmlns:xlink="http://www.w3.org/1999/xlink" 
	 width="800px" height="800px" viewBox="0 0 512 512"  xml:space="preserve">
<style type="text/css">
<![CDATA[
	.st0{fill:#000000;}
]]>
</style>
<g>
	<path class="st0" d="M490.637,328.615l-72.641-72.609l72.641-72.625c9.078-9.078,15.203-20.297,18.453-32.313
		c4.859-18.063,3.469-37.813-2.953-56.984c-6.422-19.156-17.953-37.891-34.156-54.078c-21.594-21.563-47.657-34.922-73.36-38.844
		c-12.844-1.938-25.688-1.5-37.688,1.734c-12.016,3.234-23.25,9.375-32.313,18.484l-72.625,72.641l-72.609-72.641
		c-9.094-9.109-20.313-15.25-32.313-18.484c-18.078-4.844-37.797-3.438-56.969,2.953c-19.172,6.453-37.922,17.984-54.078,34.156
		C18.449,61.6,5.105,87.662,1.183,113.365c-1.953,12.844-1.531,25.672,1.734,37.703c3.234,12,9.375,23.234,18.453,32.313
		l72.641,72.625l-72.641,72.609c-9.078,9.078-15.219,20.297-18.453,32.313c-4.875,18.063-3.469,37.813,2.953,56.953
		c6.422,19.188,17.953,37.906,34.156,54.109c21.594,21.563,47.656,34.922,73.359,38.844c12.844,1.953,25.641,1.5,37.688-1.766
		c12-3.219,23.219-9.375,32.313-18.469l72.609-72.625l72.625,72.625c9.063,9.094,20.297,15.25,32.313,18.469
		c18.063,4.875,37.797,3.469,56.969-2.922c19.157-6.453,37.922-17.984,54.079-34.156c21.563-21.594,34.922-47.656,38.844-73.391
		c1.953-12.859,1.5-25.656-1.734-37.672C505.84,348.912,499.715,337.693,490.637,328.615z M349.121,41.865
		c5.297-5.313,11.734-8.906,19.375-11c11.391-3.109,25.516-2.469,40.188,2.453c14.672,4.891,29.704,14.031,42.829,27.172
		c17.516,17.484,27.859,38.453,30.688,57.234c1.422,9.391,1,18.156-1.078,25.766c-2.078,7.641-5.688,14.078-10.984,19.406
		l-72.625,72.625l-22.406-22.438l-12.594-12.563l-48.844-48.875l-12.609-12.578l-24.563-24.578L349.121,41.865z M162.886,470.131
		c-5.313,5.281-11.734,8.906-19.375,11c-11.406,3.109-25.516,2.469-40.188-2.453s-29.734-14.031-42.844-27.172
		c-17.5-17.484-27.859-38.453-30.672-57.219c-1.422-9.406-1-18.172,1.078-25.781c2.078-7.641,5.688-14.094,10.969-19.406
		l72.625-72.625l24.609,24.594l12.578,12.578l48.844,48.844l12.594,12.625l22.406,22.375L162.886,470.131z M478.668,408.693
		c-4.891,14.641-14.031,29.688-27.156,42.813c-17.469,17.516-38.469,27.875-57.235,30.688c-9.375,1.406-18.172,0.984-25.781-1.063
		c-7.641-2.094-14.078-5.719-19.375-11l-72.625-72.641l-20.5-20.484l-121.016-121l-20.5-20.484l-72.625-72.625
		c-5.281-5.313-8.891-11.766-10.969-19.406c-3.109-11.375-2.5-25.516,2.438-40.172C38.23,88.662,47.371,73.6,60.48,60.49
		C77.964,42.943,98.949,32.6,117.73,29.803c9.375-1.438,18.172-0.984,25.781,1.063c7.625,2.078,14.078,5.688,19.375,11
		l72.625,72.625l20.484,20.5l121.031,121.016l20.484,20.469l72.625,72.609c5.297,5.328,8.906,11.781,10.984,19.422
		C484.23,379.881,483.605,394.021,478.668,408.693z"/>
	<polygon class="st0" points="249.011,329.084 260.183,340.256 340.261,260.178 329.089,249.021 	"/>
	<polygon class="st0" points="251.808,171.74 171.746,251.818 182.917,262.975 262.98,182.912 	"/>
	<path class="st0" d="M362.511,311.49c3.531,2.078,8.141,1.578,11.172-1.453c3-3,3.5-7.625,1.422-11.156
		c-0.375-0.688-0.844-1.297-1.422-1.875c-3.609-3.578-9.453-3.578-13.031,0c-3.609,3.609-3.609,9.453,0,13.031
		C361.23,310.631,361.855,311.1,362.511,311.49z"/>
	<path class="st0" d="M312.23,358.475c-3.609-3.609-9.438-3.609-13.031,0c-3.594,3.578-3.594,9.422,0,13.031
		c0.563,0.578,1.172,1.047,1.859,1.422c3.531,2.094,8.172,1.578,11.172-1.422c3.016-3.031,3.516-7.641,1.438-11.172
		C313.277,359.678,312.792,359.037,312.23,358.475z"/>
	<path class="st0" d="M423.48,359.865c-3.594,3.578-3.594,9.422,0,13.031c3.594,3.594,9.438,3.578,13.032,0
		c3.609-3.609,3.609-9.438,0-13.031C432.918,356.256,427.074,356.256,423.48,359.865z"/>
	<path class="st0" d="M362.027,421.303c-3.578,3.594-3.594,9.438,0,13.031c3.609,3.594,9.453,3.594,13.047,0
		s3.594-9.438-0.016-13.031C371.464,417.709,365.636,417.709,362.027,421.303z"/>
	<path class="st0" d="M374.371,372.193c3.594-3.594,3.594-9.438,0-13.031c-3.594-3.609-9.438-3.609-13.031,0
		c-3.594,3.594-3.594,9.438,0,13.031S370.777,375.787,374.371,372.193z"/>
	<path class="st0" d="M152.136,88.506c3.594-3.594,3.609-9.422,0-13.016c-3.609-3.609-9.438-3.609-13.031-0.016
		c-3.594,3.609-3.609,9.438,0,13.047C142.699,92.115,148.542,92.115,152.136,88.506z"/>
	<path class="st0" d="M77.652,136.928c-3.594,3.594-3.594,9.438,0,13.031c3.609,3.594,9.438,3.594,13.047,0
		c3.594-3.594,3.594-9.438,0-13.031C87.089,133.334,81.261,133.334,77.652,136.928z"/>
	<path class="st0" d="M152.839,150.646c3.594-3.594,3.594-9.422,0-13.016c-3.609-3.609-9.438-3.609-13.047,0
		c-3.594,3.594-3.594,9.422,0.016,13.016C143.402,154.256,149.23,154.256,152.839,150.646z"/>
	<path class="st0" d="M201.949,151.365c3.594,3.578,9.422,3.578,13.031,0c3.594-3.609,3.594-9.453,0-13.031
		c-0.578-0.594-1.188-1.063-1.875-1.438c-3.531-2.094-8.141-1.594-11.156,1.438c-3.016,3-3.516,7.625-1.438,11.156
		C200.886,150.146,201.355,150.787,201.949,151.365z"/>
	<path class="st0" d="M151.667,198.334c-3.516-2.078-8.156-1.578-11.156,1.422c-3.031,3.031-3.531,7.641-1.422,11.172
		c0.359,0.688,0.844,1.281,1.422,1.859c3.578,3.625,9.422,3.625,13.031,0.016c3.578-3.625,3.578-9.438,0-13.047
		C152.964,199.178,152.324,198.709,151.667,198.334z"/>
	<path class="st0" d="M448.215,140.428c3.594-3.594,3.594-9.438,0-13.047c-3.594-3.594-9.438-3.594-13.031,0
		c-3.594,3.609-3.594,9.453,0,13.047S444.621,144.021,448.215,140.428z"/>
	<path class="st0" d="M386.777,78.975c3.594-3.594,3.594-9.438-0.016-13.031c-3.594-3.594-9.422-3.594-13.031,0
		c-3.594,3.594-3.594,9.438,0,13.031C377.339,82.584,383.167,82.584,386.777,78.975z"/>
	<path class="st0" d="M383.511,179.053c-3.594,3.609-3.594,9.453,0,13.047s9.438,3.594,13.047,0c3.594-3.609,3.578-9.438,0-13.047
		C392.949,175.475,387.121,175.475,383.511,179.053z"/>
	<path class="st0" d="M335.105,130.646c3.594-3.594,3.594-9.438,0-13.031c-3.609-3.594-9.438-3.594-13.031,0
		c-3.609,3.609-3.609,9.438-0.016,13.031C325.652,134.256,331.496,134.24,335.105,130.646z"/>
	<path class="st0" d="M378.621,122.506c-3.594,3.594-3.594,9.438,0,13.031s9.438,3.594,13.047,0c3.594-3.594,3.578-9.438,0-13.031
		C388.058,118.912,382.23,118.912,378.621,122.506z"/>
	<path class="st0" d="M179.058,383.506c-3.594,3.609-3.594,9.438,0,13.031c3.609,3.609,9.438,3.609,13.047,0
		c3.594-3.594,3.594-9.422,0-13.031C188.511,379.912,182.667,379.912,179.058,383.506z"/>
	<path class="st0" d="M130.652,335.1c3.609-3.609,3.609-9.438,0-13.031c-3.594-3.609-9.438-3.609-13.031,0
		c-3.609,3.594-3.594,9.422,0,13.031C121.214,338.693,127.058,338.693,130.652,335.1z"/>
	<path class="st0" d="M127.402,435.178c-3.594,3.594-3.594,9.438,0,13.031s9.438,3.594,13.031,0s3.594-9.438,0-13.031
		S130.996,431.584,127.402,435.178z"/>
	<path class="st0" d="M65.949,373.74c-3.594,3.594-3.594,9.422,0,13.031c3.594,3.594,9.438,3.578,13.031,0
		c3.609-3.609,3.609-9.453,0-13.031C75.386,370.131,69.542,370.131,65.949,373.74z"/>
	<path class="st0" d="M135.542,391.662c3.594-3.609,3.594-9.453,0-13.031c-3.594-3.609-9.438-3.609-13.031,0
		c-3.594,3.578-3.594,9.422,0,13.031C126.105,395.256,131.949,395.256,135.542,391.662z"/>
</g>
</svg>