<?xml version="1.0" ?>
<!DOCTYPE svg  PUBLIC '-//W3C//DTD SVG 1.1//EN'  'http://www.w3.org/Graphics/SVG/1.1/DTD/svg11.dtd'>
<!-- Uploaded to: SVG Repo, www.svgrepo.com, Generator: SVG Repo Mixer Tools -->
<svg fill="#000000" width="800px" height="800px" viewBox="0 0 100 100" version="1.1" xml:space="preserve" xmlns="http://www.w3.org/2000/svg" xmlns:xlink="http://www.w3.org/1999/xlink">
<g id="_x31_"/>
<g id="_x32_"/>
<g id="_x33_"/>
<g id="_x34_"/>
<g id="_x35_"/>
<g id="_x36_"/>
<g id="_x37_"/>
<g id="_x38__x27_"/>
<g id="_x39_"/>
<g id="_x31_0"/>
<g id="_x31_1"/>
<g id="_x31_2"/>
<g id="_x31_3"/>
<g id="_x31_4"/>
<g id="_x31_5"/>
<g id="_x31_6"/>
<g id="_x31_7"/>
<g id="_x31_8">
<path d="M79,89.3c-2.8,0-5.5-1.1-7.6-3.2L49.4,64.2c-0.7-0.7-1.1-1.6-1.1-2.5c0-1,0.4-1.9,1.1-2.5L59.6,49c1.4-1.4,3.7-1.4,5.1,0   l21.9,21.9c4.2,4.2,4.2,11,0,15.3C84.5,88.3,81.7,89.3,79,89.3z M62.1,50.9c-0.2,0-0.3,0.1-0.4,0.2L51.5,61.3   c-0.2,0.2-0.2,0.3-0.2,0.4c0,0.1,0,0.3,0.2,0.4L73.5,84c1.5,1.5,3.4,2.3,5.5,2.3s4-0.8,5.5-2.3s2.3-3.4,2.3-5.5s-0.8-4-2.3-5.5   L62.5,51.1C62.4,51,62.3,50.9,62.1,50.9z M45.4,63.3c-2.6,0-5.1-1-7-2.9L25.6,47.5C25,47,25,46,25.6,45.4l20.3-20.3   c0.6-0.6,1.5-0.6,2.1,0L60.8,38c3.8,3.8,3.8,10.1,0,13.9l-8.5,8.5C50.5,62.3,48,63.3,45.4,63.3z M28.7,46.5l11.8,11.8   c1.3,1.3,3,2,4.8,2c1.8,0,3.6-0.7,4.8-2l8.5-8.5c2.7-2.7,2.7-7,0-9.7L46.9,28.3L28.7,46.5z M78.3,77.1c-0.4,0-0.8-0.1-1.1-0.4   L64,63.4c-0.3-0.3-0.4-0.7-0.4-1.1s0.2-0.8,0.4-1.1l5.4-5.4c0.3-0.3,0.7-0.4,1.1-0.4l0,0c0.4,0,0.8,0.2,1.1,0.4l13.2,13.2   c0.6,0.6,0.6,1.5,0,2.1l-5.4,5.4C79.1,76.9,78.7,77.1,78.3,77.1z M67.2,62.3l11.1,11.1l3.3-3.3L70.5,59.1L67.2,62.3z M36,57.4   c-0.4,0-0.8-0.1-1.1-0.4l-4.5-4.5c-0.6-0.6-0.6-1.5,0-2.1L50.7,30c0.6-0.6,1.5-0.6,2.1,0l4.5,4.5c0.6,0.6,0.6,1.5,0,2.1L37.1,56.9   C36.8,57.2,36.4,57.4,36,57.4z M33.6,51.4l2.4,2.4l18.2-18.2l-2.4-2.4L33.6,51.4z M32.1,32.3c0.6-0.6,0.6-1.5,0-2.1L24.9,23   c-0.6-0.6-1.5-0.6-2.1,0s-0.6,1.5,0,2.1l7.2,7.2c0.3,0.3,0.7,0.4,1.1,0.4S31.8,32.6,32.1,32.3z M39.3,24.7c0.8-0.2,1.3-1,1.1-1.8   l-2.8-11.1c-0.2-0.8-1-1.3-1.8-1.1c-0.8,0.2-1.3,1-1.1,1.8l2.8,11.1c0.2,0.7,0.8,1.1,1.5,1.1C39.1,24.8,39.2,24.8,39.3,24.7z    M24.3,39.8c0.2-0.8-0.3-1.6-1.1-1.8l-11.1-2.8c-0.8-0.2-1.6,0.3-1.8,1.1s0.3,1.6,1.1,1.8l11.1,2.8c0.1,0,0.2,0,0.4,0   C23.5,40.9,24.1,40.4,24.3,39.8z"/>
</g>
<g id="_x31_9"/>
<g id="_x32_0"/>
<g id="_x32_1"/>
<g id="_x32_2"/>
<g id="_x32_3"/>
<g id="_x32_4"/>
<g id="_x32_5"/>
</svg>